<svg width="500" height="400" viewBox="0 0 500 400" fill="none" xmlns="http://www.w3.org/2000/svg">
<path d="M0.15 20C0.15 9.03715 9.03715 0.15 20 0.15H480C490.963 0.15 499.85 9.03715 499.85 20V380C499.85 390.963 490.963 399.85 480 399.85H20C9.03716 399.85 0.15 390.963 0.15 380V20Z" fill="#D9D9D9" fill-opacity="0.05" stroke="#EEEEEE" stroke-width="0.3"/>
<rect x="50.15" y="258.15" width="399.7" height="49.7" rx="9.85" fill="#D9D9D9" fill-opacity="0.05" stroke="#EEEEEE" stroke-width="0.3"/>
<path d="M81.5489 268.927C81.8483 268.006 83.1517 268.006 83.4511 268.927L85.98 276.71C86.1138 277.122 86.4978 277.401 86.931 277.401H95.1147C96.0835 277.401 96.4862 278.641 95.7025 279.21L89.0818 284.021C88.7313 284.275 88.5846 284.727 88.7185 285.139L91.2474 292.922C91.5468 293.843 90.4923 294.609 89.7086 294.04L83.0878 289.229C82.7373 288.975 82.2627 288.975 81.9122 289.229L75.2914 294.04C74.5077 294.609 73.4532 293.843 73.7526 292.922L76.2815 285.139C76.4154 284.727 76.2687 284.275 75.9182 284.021L69.2975 279.21C68.5138 278.641 68.9165 277.401 69.8853 277.401H78.069C78.5022 277.401 78.8862 277.122 79.02 276.71L81.5489 268.927Z" fill="#D9D9D9" fill-opacity="0.4"/>
<rect x="50.15" y="197.15" width="399.7" height="49.7" rx="9.85" fill="#D9D9D9" fill-opacity="0.05" stroke="#EEEEEE" stroke-width="0.3"/>
<path d="M81.5489 207.927C81.8483 207.006 83.1517 207.006 83.4511 207.927L85.98 215.71C86.1138 216.122 86.4978 216.401 86.931 216.401H95.1147C96.0835 216.401 96.4862 217.641 95.7025 218.21L89.0818 223.021C88.7313 223.275 88.5846 223.727 88.7185 224.139L91.2474 231.922C91.5468 232.843 90.4923 233.609 89.7086 233.04L83.0878 228.229C82.7373 227.975 82.2627 227.975 81.9122 228.229L75.2914 233.04C74.5077 233.609 73.4532 232.843 73.7526 231.922L76.2815 224.139C76.4154 223.727 76.2687 223.275 75.9182 223.021L69.2975 218.21C68.5138 217.641 68.9165 216.401 69.8853 216.401H78.069C78.5022 216.401 78.8862 216.122 79.02 215.71L81.5489 207.927Z" fill="#D9D9D9" fill-opacity="0.4"/>
<rect x="50.15" y="75.15" width="399.7" height="49.7" rx="9.85" fill="#D9D9D9" fill-opacity="0.05" stroke="#EEEEEE" stroke-width="0.3"/>
<path d="M81.5489 85.9271C81.8483 85.0057 83.1517 85.0057 83.4511 85.9271L85.98 93.7102C86.1138 94.1223 86.4978 94.4012 86.931 94.4012H95.1147C96.0835 94.4012 96.4862 95.6408 95.7025 96.2102L89.0818 101.021C88.7313 101.275 88.5846 101.727 88.7185 102.139L91.2474 109.922C91.5468 110.843 90.4923 111.609 89.7086 111.04L83.0878 106.229C82.7373 105.975 82.2627 105.975 81.9122 106.229L75.2914 111.04C74.5077 111.609 73.4532 110.843 73.7526 109.922L76.2815 102.139C76.4154 101.727 76.2687 101.275 75.9182 101.021L69.2975 96.2102C68.5138 95.6408 68.9165 94.4012 69.8853 94.4012H78.069C78.5022 94.4012 78.8862 94.1223 79.02 93.7102L81.5489 85.9271Z" fill="#D9D9D9" fill-opacity="0.4"/>
<path d="M128.442 97.0497C128.304 96.6188 128.12 96.233 127.888 95.892C127.661 95.5464 127.388 95.2528 127.071 95.0114C126.754 94.7652 126.392 94.5781 125.984 94.4503C125.582 94.3224 125.139 94.2585 124.656 94.2585C123.837 94.2585 123.098 94.4692 122.44 94.8906C121.782 95.312 121.261 95.9299 120.878 96.7443C120.499 97.554 120.31 98.5459 120.31 99.7202C120.31 100.899 120.501 101.896 120.885 102.71C121.268 103.525 121.794 104.143 122.462 104.564C123.129 104.985 123.889 105.196 124.741 105.196C125.532 105.196 126.221 105.035 126.808 104.713C127.4 104.391 127.857 103.937 128.179 103.349C128.506 102.758 128.669 102.062 128.669 101.261L129.237 101.368H125.075V99.5568H130.793V101.212C130.793 102.433 130.532 103.494 130.011 104.393C129.495 105.288 128.78 105.98 127.866 106.467C126.957 106.955 125.916 107.199 124.741 107.199C123.425 107.199 122.27 106.896 121.276 106.29C120.286 105.684 119.514 104.824 118.96 103.712C118.406 102.594 118.129 101.268 118.129 99.7344C118.129 98.5743 118.29 97.5327 118.612 96.6094C118.934 95.6861 119.386 94.9025 119.969 94.2585C120.556 93.6098 121.245 93.1151 122.036 92.7741C122.831 92.4285 123.7 92.2557 124.642 92.2557C125.428 92.2557 126.16 92.3717 126.837 92.6037C127.518 92.8357 128.125 93.1648 128.655 93.5909C129.19 94.017 129.633 94.5237 129.983 95.1108C130.333 95.6932 130.57 96.3395 130.693 97.0497H128.442ZM138.003 107.22C136.98 107.22 136.088 106.986 135.326 106.517C134.563 106.048 133.971 105.393 133.55 104.55C133.129 103.707 132.918 102.722 132.918 101.595C132.918 100.464 133.129 99.474 133.55 98.6264C133.971 97.7789 134.563 97.1207 135.326 96.652C136.088 96.1832 136.98 95.9489 138.003 95.9489C139.026 95.9489 139.918 96.1832 140.681 96.652C141.443 97.1207 142.035 97.7789 142.456 98.6264C142.878 99.474 143.088 100.464 143.088 101.595C143.088 102.722 142.878 103.707 142.456 104.55C142.035 105.393 141.443 106.048 140.681 106.517C139.918 106.986 139.026 107.22 138.003 107.22ZM138.01 105.438C138.673 105.438 139.222 105.262 139.658 104.912C140.094 104.562 140.416 104.095 140.624 103.513C140.837 102.93 140.944 102.289 140.944 101.588C140.944 100.892 140.837 100.253 140.624 99.6705C140.416 99.0833 140.094 98.6122 139.658 98.2571C139.222 97.902 138.673 97.7244 138.01 97.7244C137.343 97.7244 136.789 97.902 136.348 98.2571C135.913 98.6122 135.588 99.0833 135.375 99.6705C135.167 100.253 135.063 100.892 135.063 101.588C135.063 102.289 135.167 102.93 135.375 103.513C135.588 104.095 135.913 104.562 136.348 104.912C136.789 105.262 137.343 105.438 138.01 105.438ZM150.054 107.22C149.031 107.22 148.139 106.986 147.376 106.517C146.614 106.048 146.022 105.393 145.601 104.55C145.179 103.707 144.969 102.722 144.969 101.595C144.969 100.464 145.179 99.474 145.601 98.6264C146.022 97.7789 146.614 97.1207 147.376 96.652C148.139 96.1832 149.031 95.9489 150.054 95.9489C151.077 95.9489 151.969 96.1832 152.732 96.652C153.494 97.1207 154.086 97.7789 154.507 98.6264C154.929 99.474 155.139 100.464 155.139 101.595C155.139 102.722 154.929 103.707 154.507 104.55C154.086 105.393 153.494 106.048 152.732 106.517C151.969 106.986 151.077 107.22 150.054 107.22ZM150.061 105.438C150.724 105.438 151.273 105.262 151.709 104.912C152.144 104.562 152.466 104.095 152.675 103.513C152.888 102.93 152.994 102.289 152.994 101.588C152.994 100.892 152.888 100.253 152.675 99.6705C152.466 99.0833 152.144 98.6122 151.709 98.2571C151.273 97.902 150.724 97.7244 150.061 97.7244C149.393 97.7244 148.839 97.902 148.399 98.2571C147.964 98.6122 147.639 99.0833 147.426 99.6705C147.218 100.253 147.114 100.892 147.114 101.588C147.114 102.289 147.218 102.93 147.426 103.513C147.639 104.095 147.964 104.562 148.399 104.912C148.839 105.262 149.393 105.438 150.061 105.438ZM162.083 111.318C161.217 111.318 160.471 111.205 159.846 110.977C159.226 110.75 158.719 110.449 158.326 110.075C157.933 109.701 157.64 109.292 157.446 108.847L159.271 108.094C159.399 108.302 159.569 108.522 159.782 108.754C160 108.991 160.294 109.192 160.663 109.358C161.037 109.524 161.518 109.607 162.105 109.607C162.91 109.607 163.575 109.41 164.1 109.017C164.626 108.629 164.889 108.009 164.889 107.156V105.011H164.754C164.626 105.243 164.441 105.501 164.2 105.786C163.963 106.07 163.636 106.316 163.22 106.524C162.803 106.732 162.261 106.837 161.593 106.837C160.732 106.837 159.955 106.635 159.264 106.233C158.577 105.826 158.033 105.227 157.63 104.436C157.233 103.641 157.034 102.663 157.034 101.503C157.034 100.343 157.23 99.3485 157.623 98.5199C158.021 97.6913 158.565 97.0568 159.257 96.6165C159.948 96.1714 160.732 95.9489 161.608 95.9489C162.285 95.9489 162.832 96.0625 163.248 96.2898C163.665 96.5123 163.989 96.7727 164.221 97.071C164.458 97.3693 164.64 97.6321 164.768 97.8594H164.924V96.0909H167.005V107.241C167.005 108.179 166.788 108.948 166.352 109.55C165.916 110.151 165.327 110.596 164.583 110.885C163.845 111.174 163.011 111.318 162.083 111.318ZM162.062 105.075C162.673 105.075 163.189 104.933 163.61 104.649C164.037 104.36 164.359 103.948 164.576 103.413C164.799 102.874 164.91 102.227 164.91 101.474C164.91 100.741 164.801 100.094 164.583 99.5355C164.366 98.9768 164.046 98.5412 163.625 98.2287C163.203 97.9115 162.682 97.7528 162.062 97.7528C161.423 97.7528 160.89 97.9186 160.464 98.25C160.038 98.5767 159.716 99.0218 159.498 99.5852C159.285 100.149 159.179 100.778 159.179 101.474C159.179 102.189 159.288 102.817 159.505 103.357C159.723 103.896 160.045 104.318 160.471 104.621C160.902 104.924 161.432 105.075 162.062 105.075ZM171.977 92.4545V107H169.853V92.4545H171.977ZM179.536 107.22C178.461 107.22 177.535 106.991 176.759 106.531C175.987 106.067 175.39 105.416 174.969 104.578C174.552 103.735 174.344 102.748 174.344 101.616C174.344 100.499 174.552 99.5142 174.969 98.6619C175.39 97.8097 175.977 97.1444 176.73 96.6662C177.488 96.188 178.373 95.9489 179.386 95.9489C180.002 95.9489 180.598 96.0507 181.176 96.2543C181.754 96.4579 182.272 96.7775 182.732 97.2131C183.191 97.6487 183.553 98.2145 183.818 98.9105C184.083 99.6018 184.216 100.442 184.216 101.432V102.185H175.544V100.594H182.135C182.135 100.035 182.021 99.5402 181.794 99.1094C181.567 98.6738 181.247 98.3305 180.835 98.0795C180.428 97.8286 179.95 97.7031 179.401 97.7031C178.804 97.7031 178.283 97.8499 177.838 98.1435C177.398 98.4323 177.057 98.8111 176.815 99.2798C176.579 99.7438 176.46 100.248 176.46 100.793V102.036C176.46 102.765 176.588 103.385 176.844 103.896C177.104 104.408 177.466 104.798 177.93 105.068C178.394 105.333 178.937 105.466 179.557 105.466C179.959 105.466 180.326 105.409 180.658 105.295C180.989 105.177 181.276 105.002 181.517 104.77C181.759 104.538 181.943 104.251 182.071 103.911L184.081 104.273C183.92 104.865 183.631 105.383 183.214 105.828C182.803 106.268 182.284 106.612 181.659 106.858C181.039 107.099 180.331 107.22 179.536 107.22Z" fill="#EEEEEE" fill-opacity="0.7"/>
<rect x="50.15" y="136.15" width="399.7" height="49.7" rx="9.85" fill="#D9D9D9" fill-opacity="0.05" stroke="#EEEEEE" stroke-width="0.3"/>
<path d="M81.5489 146.927C81.8483 146.006 83.1517 146.006 83.4511 146.927L85.98 154.71C86.1138 155.122 86.4978 155.401 86.931 155.401H95.1147C96.0835 155.401 96.4862 156.641 95.7025 157.21L89.0818 162.021C88.7313 162.275 88.5846 162.727 88.7185 163.139L91.2474 170.922C91.5468 171.843 90.4923 172.609 89.7086 172.04L83.0878 167.229C82.7373 166.975 82.2627 166.975 81.9122 167.229L75.2914 172.04C74.5077 172.609 73.4532 171.843 73.7526 170.922L76.2815 163.139C76.4154 162.727 76.2687 162.275 75.9182 162.021L69.2975 157.21C68.5138 156.641 68.9165 155.401 69.8853 155.401H78.069C78.5022 155.401 78.8862 155.122 79.02 154.71L81.5489 146.927Z" fill="#D9D9D9" fill-opacity="0.4"/>
<path d="M119.869 153.455L123.918 165.301H124.081L128.129 153.455H130.501L125.267 168H122.732L117.497 153.455H119.869ZM135.933 168.22C134.91 168.22 134.018 167.986 133.255 167.517C132.493 167.048 131.901 166.393 131.48 165.55C131.058 164.707 130.848 163.722 130.848 162.595C130.848 161.464 131.058 160.474 131.48 159.626C131.901 158.779 132.493 158.121 133.255 157.652C134.018 157.183 134.91 156.949 135.933 156.949C136.956 156.949 137.848 157.183 138.61 157.652C139.373 158.121 139.965 158.779 140.386 159.626C140.807 160.474 141.018 161.464 141.018 162.595C141.018 163.722 140.807 164.707 140.386 165.55C139.965 166.393 139.373 167.048 138.61 167.517C137.848 167.986 136.956 168.22 135.933 168.22ZM135.94 166.438C136.603 166.438 137.152 166.262 137.588 165.912C138.023 165.562 138.345 165.095 138.554 164.513C138.767 163.93 138.873 163.289 138.873 162.588C138.873 161.892 138.767 161.253 138.554 160.67C138.345 160.083 138.023 159.612 137.588 159.257C137.152 158.902 136.603 158.724 135.94 158.724C135.272 158.724 134.718 158.902 134.278 159.257C133.842 159.612 133.518 160.083 133.305 160.67C133.097 161.253 132.993 161.892 132.993 162.588C132.993 163.289 133.097 163.93 133.305 164.513C133.518 165.095 133.842 165.562 134.278 165.912C134.718 166.262 135.272 166.438 135.94 166.438ZM148.481 157.091V158.795H142.522V157.091H148.481ZM144.12 154.477H146.244V164.797C146.244 165.209 146.305 165.519 146.428 165.727C146.551 165.931 146.71 166.071 146.904 166.146C147.103 166.217 147.318 166.253 147.55 166.253C147.721 166.253 147.87 166.241 147.998 166.217C148.126 166.194 148.225 166.175 148.296 166.161L148.68 167.915C148.557 167.962 148.381 168.009 148.154 168.057C147.927 168.109 147.643 168.137 147.302 168.142C146.743 168.152 146.222 168.052 145.739 167.844C145.256 167.635 144.866 167.313 144.567 166.878C144.269 166.442 144.12 165.895 144.12 165.237V154.477ZM150.83 168V157.091H152.882V158.824H152.996C153.195 158.237 153.545 157.775 154.047 157.439C154.554 157.098 155.127 156.928 155.766 156.928C155.899 156.928 156.055 156.932 156.235 156.942C156.419 156.951 156.564 156.963 156.668 156.977V159.009C156.583 158.985 156.431 158.959 156.213 158.93C155.996 158.897 155.778 158.881 155.56 158.881C155.058 158.881 154.611 158.987 154.218 159.2C153.829 159.409 153.522 159.7 153.294 160.074C153.067 160.443 152.953 160.865 152.953 161.338V168H150.83ZM162.817 168.22C161.742 168.22 160.816 167.991 160.04 167.531C159.268 167.067 158.671 166.416 158.25 165.578C157.833 164.735 157.625 163.748 157.625 162.616C157.625 161.499 157.833 160.514 158.25 159.662C158.671 158.81 159.259 158.144 160.011 157.666C160.769 157.188 161.654 156.949 162.668 156.949C163.283 156.949 163.88 157.051 164.457 157.254C165.035 157.458 165.554 157.777 166.013 158.213C166.472 158.649 166.834 159.214 167.099 159.911C167.365 160.602 167.497 161.442 167.497 162.432V163.185H158.825V161.594H165.416C165.416 161.035 165.303 160.54 165.075 160.109C164.848 159.674 164.528 159.33 164.116 159.08C163.709 158.829 163.231 158.703 162.682 158.703C162.085 158.703 161.564 158.85 161.119 159.143C160.679 159.432 160.338 159.811 160.097 160.28C159.86 160.744 159.741 161.248 159.741 161.793V163.036C159.741 163.765 159.869 164.385 160.125 164.896C160.385 165.408 160.748 165.798 161.212 166.068C161.676 166.333 162.218 166.466 162.838 166.466C163.241 166.466 163.607 166.409 163.939 166.295C164.27 166.177 164.557 166.002 164.798 165.77C165.04 165.538 165.224 165.251 165.352 164.911L167.362 165.273C167.201 165.865 166.912 166.383 166.496 166.828C166.084 167.268 165.565 167.612 164.94 167.858C164.32 168.099 163.612 168.22 162.817 168.22ZM179.848 168.22C178.773 168.22 177.848 167.991 177.071 167.531C176.299 167.067 175.703 166.416 175.281 165.578C174.865 164.735 174.656 163.748 174.656 162.616C174.656 161.499 174.865 160.514 175.281 159.662C175.703 158.81 176.29 158.144 177.043 157.666C177.8 157.188 178.686 156.949 179.699 156.949C180.314 156.949 180.911 157.051 181.489 157.254C182.066 157.458 182.585 157.777 183.044 158.213C183.503 158.649 183.866 159.214 184.131 159.911C184.396 160.602 184.528 161.442 184.528 162.432V163.185H175.857V161.594H182.447C182.447 161.035 182.334 160.54 182.107 160.109C181.879 159.674 181.56 159.33 181.148 159.08C180.741 158.829 180.262 158.703 179.713 158.703C179.116 158.703 178.596 158.85 178.151 159.143C177.71 159.432 177.369 159.811 177.128 160.28C176.891 160.744 176.773 161.248 176.773 161.793V163.036C176.773 163.765 176.901 164.385 177.156 164.896C177.417 165.408 177.779 165.798 178.243 166.068C178.707 166.333 179.249 166.466 179.869 166.466C180.272 166.466 180.639 166.409 180.97 166.295C181.302 166.177 181.588 166.002 181.83 165.77C182.071 165.538 182.256 165.251 182.384 164.911L184.393 165.273C184.232 165.865 183.944 166.383 183.527 166.828C183.115 167.268 182.597 167.612 181.972 167.858C181.351 168.099 180.643 168.22 179.848 168.22ZM189.008 161.523V168H186.885V157.091H188.923V158.866H189.058C189.309 158.289 189.702 157.825 190.237 157.474C190.777 157.124 191.456 156.949 192.275 156.949C193.019 156.949 193.67 157.105 194.228 157.418C194.787 157.725 195.22 158.185 195.528 158.795C195.836 159.406 195.99 160.161 195.99 161.061V168H193.866V161.317C193.866 160.526 193.66 159.908 193.248 159.463C192.836 159.013 192.27 158.788 191.551 158.788C191.058 158.788 190.62 158.895 190.237 159.108C189.858 159.321 189.557 159.634 189.335 160.045C189.117 160.453 189.008 160.945 189.008 161.523ZM203.93 157.091V158.795H197.971V157.091H203.93ZM199.569 154.477H201.693V164.797C201.693 165.209 201.754 165.519 201.877 165.727C202.001 165.931 202.159 166.071 202.353 166.146C202.552 166.217 202.768 166.253 203 166.253C203.17 166.253 203.319 166.241 203.447 166.217C203.575 166.194 203.674 166.175 203.745 166.161L204.129 167.915C204.006 167.962 203.831 168.009 203.603 168.057C203.376 168.109 203.092 168.137 202.751 168.142C202.192 168.152 201.672 168.052 201.189 167.844C200.706 167.635 200.315 167.313 200.017 166.878C199.718 166.442 199.569 165.895 199.569 165.237V154.477ZM206.279 168V157.091H208.332V158.824H208.445C208.644 158.237 208.995 157.775 209.496 157.439C210.003 157.098 210.576 156.928 211.215 156.928C211.348 156.928 211.504 156.932 211.684 156.942C211.869 156.951 212.013 156.963 212.117 156.977V159.009C212.032 158.985 211.88 158.959 211.663 158.93C211.445 158.897 211.227 158.881 211.009 158.881C210.507 158.881 210.06 158.987 209.667 159.2C209.279 159.409 208.971 159.7 208.744 160.074C208.516 160.443 208.403 160.865 208.403 161.338V168H206.279ZM218.266 168.22C217.191 168.22 216.266 167.991 215.489 167.531C214.717 167.067 214.121 166.416 213.699 165.578C213.283 164.735 213.074 163.748 213.074 162.616C213.074 161.499 213.283 160.514 213.699 159.662C214.121 158.81 214.708 158.144 215.461 157.666C216.218 157.188 217.104 156.949 218.117 156.949C218.732 156.949 219.329 157.051 219.907 157.254C220.484 157.458 221.003 157.777 221.462 158.213C221.921 158.649 222.283 159.214 222.549 159.911C222.814 160.602 222.946 161.442 222.946 162.432V163.185H214.275V161.594H220.865C220.865 161.035 220.752 160.54 220.525 160.109C220.297 159.674 219.978 159.33 219.566 159.08C219.158 158.829 218.68 158.703 218.131 158.703C217.534 158.703 217.014 158.85 216.569 159.143C216.128 159.432 215.787 159.811 215.546 160.28C215.309 160.744 215.191 161.248 215.191 161.793V163.036C215.191 163.765 215.319 164.385 215.574 164.896C215.835 165.408 216.197 165.798 216.661 166.068C217.125 166.333 217.667 166.466 218.287 166.466C218.69 166.466 219.057 166.409 219.388 166.295C219.72 166.177 220.006 166.002 220.248 165.77C220.489 165.538 220.674 165.251 220.801 164.911L222.811 165.273C222.65 165.865 222.362 166.383 221.945 166.828C221.533 167.268 221.015 167.612 220.39 167.858C219.769 168.099 219.061 168.22 218.266 168.22ZM225.303 172.091V157.091H227.376V158.859H227.554C227.677 158.632 227.855 158.369 228.087 158.071C228.319 157.773 228.641 157.512 229.053 157.29C229.464 157.062 230.009 156.949 230.686 156.949C231.567 156.949 232.353 157.171 233.044 157.616C233.735 158.062 234.277 158.703 234.67 159.541C235.068 160.379 235.267 161.388 235.267 162.567C235.267 163.746 235.071 164.757 234.678 165.599C234.285 166.437 233.745 167.084 233.058 167.538C232.372 167.988 231.588 168.213 230.707 168.213C230.045 168.213 229.502 168.102 229.081 167.879C228.664 167.657 228.338 167.396 228.101 167.098C227.864 166.8 227.682 166.535 227.554 166.303H227.426V172.091H225.303ZM227.384 162.545C227.384 163.312 227.495 163.985 227.717 164.562C227.94 165.14 228.262 165.592 228.683 165.919C229.105 166.241 229.621 166.402 230.232 166.402C230.866 166.402 231.396 166.234 231.822 165.898C232.249 165.557 232.571 165.095 232.788 164.513C233.011 163.93 233.122 163.275 233.122 162.545C233.122 161.826 233.013 161.179 232.795 160.607C232.582 160.034 232.26 159.581 231.83 159.25C231.403 158.919 230.871 158.753 230.232 158.753C229.616 158.753 229.095 158.911 228.669 159.229C228.248 159.546 227.928 159.989 227.71 160.557C227.492 161.125 227.384 161.788 227.384 162.545ZM237.646 168V157.091H239.699V158.824H239.812C240.011 158.237 240.362 157.775 240.864 157.439C241.37 157.098 241.943 156.928 242.582 156.928C242.715 156.928 242.871 156.932 243.051 156.942C243.236 156.951 243.38 156.963 243.484 156.977V159.009C243.399 158.985 243.248 158.959 243.03 158.93C242.812 158.897 242.594 158.881 242.376 158.881C241.875 158.881 241.427 158.987 241.034 159.2C240.646 159.409 240.338 159.7 240.111 160.074C239.884 160.443 239.77 160.865 239.77 161.338V168H237.646ZM245.322 168V157.091H247.446V168H245.322ZM246.395 155.408C246.025 155.408 245.708 155.285 245.443 155.038C245.182 154.787 245.052 154.489 245.052 154.143C245.052 153.793 245.182 153.495 245.443 153.249C245.708 152.998 246.025 152.872 246.395 152.872C246.764 152.872 247.079 152.998 247.339 153.249C247.604 153.495 247.737 153.793 247.737 154.143C247.737 154.489 247.604 154.787 247.339 155.038C247.079 155.285 246.764 155.408 246.395 155.408ZM258.477 159.754L256.553 160.095C256.472 159.849 256.344 159.615 256.169 159.392C255.999 159.17 255.767 158.987 255.473 158.845C255.179 158.703 254.813 158.632 254.372 158.632C253.771 158.632 253.269 158.767 252.866 159.037C252.464 159.302 252.263 159.645 252.263 160.067C252.263 160.431 252.398 160.725 252.668 160.947C252.938 161.17 253.373 161.352 253.974 161.494L255.707 161.892C256.711 162.124 257.459 162.482 257.952 162.964C258.444 163.447 258.69 164.075 258.69 164.847C258.69 165.5 258.501 166.082 258.122 166.594C257.748 167.1 257.225 167.498 256.553 167.787C255.885 168.076 255.111 168.22 254.23 168.22C253.009 168.22 252.012 167.96 251.24 167.439C250.468 166.913 249.995 166.168 249.82 165.202L251.872 164.889C252 165.424 252.263 165.829 252.661 166.104C253.058 166.374 253.577 166.509 254.216 166.509C254.912 166.509 255.468 166.364 255.885 166.075C256.302 165.782 256.51 165.424 256.51 165.003C256.51 164.662 256.382 164.375 256.126 164.143C255.875 163.911 255.49 163.736 254.969 163.618L253.122 163.213C252.104 162.981 251.351 162.612 250.864 162.105C250.381 161.598 250.139 160.957 250.139 160.18C250.139 159.536 250.319 158.973 250.679 158.49C251.039 158.007 251.536 157.631 252.17 157.361C252.805 157.086 253.532 156.949 254.351 156.949C255.53 156.949 256.458 157.205 257.135 157.716C257.812 158.223 258.259 158.902 258.477 159.754ZM265.727 168.22C264.652 168.22 263.726 167.991 262.95 167.531C262.178 167.067 261.582 166.416 261.16 165.578C260.743 164.735 260.535 163.748 260.535 162.616C260.535 161.499 260.743 160.514 261.16 159.662C261.582 158.81 262.169 158.144 262.922 157.666C263.679 157.188 264.565 156.949 265.578 156.949C266.193 156.949 266.79 157.051 267.368 157.254C267.945 157.458 268.464 157.777 268.923 158.213C269.382 158.649 269.744 159.214 270.01 159.911C270.275 160.602 270.407 161.442 270.407 162.432V163.185H261.735V161.594H268.326C268.326 161.035 268.213 160.54 267.985 160.109C267.758 159.674 267.439 159.33 267.027 159.08C266.619 158.829 266.141 158.703 265.592 158.703C264.995 158.703 264.475 158.85 264.029 159.143C263.589 159.432 263.248 159.811 263.007 160.28C262.77 160.744 262.652 161.248 262.652 161.793V163.036C262.652 163.765 262.779 164.385 263.035 164.896C263.296 165.408 263.658 165.798 264.122 166.068C264.586 166.333 265.128 166.466 265.748 166.466C266.151 166.466 266.518 166.409 266.849 166.295C267.181 166.177 267.467 166.002 267.708 165.77C267.95 165.538 268.135 165.251 268.262 164.911L270.272 165.273C270.111 165.865 269.823 166.383 269.406 166.828C268.994 167.268 268.475 167.612 267.85 167.858C267.23 168.099 266.522 168.22 265.727 168.22Z" fill="#EEEEEE" fill-opacity="0.7"/>
<g opacity="0.98">
<path d="M25 325C37.8755 299 68.0687 250.9 85.8369 266.5C108.047 286 116.255 325 144.26 291.5C172.264 258 187.232 187.5 202.682 213.5C218.133 239.5 222.961 263.5 233.101 247.5C243.24 231.5 247.586 154.5 263.036 174C278.487 193.5 291.041 218 303.112 196C315.182 174 316.148 125.5 325.322 134C334.496 142.5 372.157 162.5 389.056 138.5C405.955 114.5 423.337 72.5 445.547 89.5C463.315 103.1 472.586 85.5 475 75V325H25Z" fill="#D9D9D9" fill-opacity="0.1"/>
<path d="M24.5519 324.778L24.1944 325.5H25H475H475.5V325V75L474.513 74.888C473.316 80.0929 470.43 86.992 465.712 90.9025C463.368 92.8461 460.583 94.0429 457.32 93.9486C454.05 93.8541 450.238 92.4604 445.851 89.1029C440.172 84.7562 434.74 84.1534 429.548 86.1424C424.405 88.1125 419.554 92.6036 414.922 98.3098C410.282 104.025 405.816 111.019 401.463 118.065C400.673 119.345 399.887 120.625 399.104 121.901C395.566 127.662 392.097 133.313 388.647 138.212C380.373 149.963 367.003 150.994 354.409 147.951C341.815 144.908 330.184 137.823 325.662 133.633C325.048 133.065 324.428 132.695 323.795 132.564C323.147 132.43 322.533 132.556 321.972 132.892C320.895 133.537 320.006 134.957 319.219 136.812C317.626 140.562 316.259 146.568 314.814 153.46C314.543 154.751 314.269 156.074 313.991 157.421C312.776 163.291 311.468 169.617 309.9 175.711C307.972 183.208 305.66 190.315 302.673 195.759C299.678 201.218 296.734 203.637 293.852 204.092C290.966 204.548 287.933 203.068 284.673 200.188C281.425 197.318 278.057 193.152 274.518 188.457C273.294 186.832 272.049 185.143 270.783 183.426C268.404 180.2 265.952 176.874 263.428 173.689C261.465 171.212 259.544 170.093 257.648 170.41C255.793 170.72 254.215 172.374 252.834 174.757C250.051 179.56 247.729 187.932 245.589 197.326C244.517 202.035 243.486 207.021 242.465 211.97L242.395 212.311C241.397 217.147 240.408 221.942 239.395 226.413C238.359 230.99 237.301 235.22 236.187 238.8C235.071 242.388 233.91 245.29 232.679 247.232C231.426 249.208 230.282 250.524 229.222 251.295C228.175 252.057 227.233 252.274 226.337 252.103C225.42 251.927 224.468 251.327 223.453 250.281C222.441 249.238 221.404 247.789 220.311 245.99C218.373 242.803 216.305 238.588 213.919 233.73C213.61 233.101 213.296 232.461 212.976 231.81C210.192 226.153 206.986 219.763 203.112 213.245C201.159 209.958 199.146 208.073 197.008 207.528C194.839 206.975 192.712 207.84 190.646 209.63C188.581 211.419 186.497 214.195 184.365 217.659C182.23 221.129 180.026 225.321 177.73 229.966C175.856 233.758 173.924 237.845 171.915 242.094C168.988 248.284 165.897 254.82 162.585 261.296C157.007 272.2 150.841 282.848 143.876 291.179C136.897 299.528 131.235 303.252 126.367 303.974C121.536 304.691 117.339 302.469 113.222 298.514C109.582 295.018 106.078 290.241 102.319 285.115C101.817 284.431 101.311 283.741 100.8 283.047C96.4697 277.172 91.7642 271.039 86.1668 266.124C83.8654 264.104 81.3441 263.102 78.6743 262.969C76.0141 262.837 73.2413 263.568 70.425 264.955C64.8023 267.722 58.9067 273.147 53.2035 279.825C41.7872 293.194 30.9988 311.76 24.5519 324.778Z" stroke="#EEEEEE" stroke-opacity="0.7"/>
</g>
</svg>
